<svg height="512pt" viewBox="0 0 512 512" width="512pt" xmlns="http://www.w3.org/2000/svg"><path d="m476.070312 75.414062c3.066407-13.621093-.992187-27.648437-10.863281-37.519531-9.871093-9.871093-23.898437-13.933593-37.523437-10.863281-27.386719 6.171875-48.179688 16.207031-61.796875 29.824219-4.273438 4.273437-8.03125 9.128906-11.335938 14.339843-3.488281-8.09375-7.96875-16.46875-13.425781-25.101562-7.460938-11.804688-20.253906-18.847656-34.214844-18.847656-13.960937 0-26.75 7.042968-34.210937 18.847656-11.960938 18.917969-19.222657 36.609375-21.675781 52.765625-4.25-1.492187-8.785157-2.277344-13.449219-2.277344-13.960938 0-26.75 7.046875-34.214844 18.851563-12.039063 19.042968-19.316406 36.839844-21.722656 53.082031-4.304688-1.535156-8.910157-2.347656-13.648438-2.347656-13.960937 0-26.753906 7.046875-34.214843 18.847656-15.003907 23.730469-22.609376 45.527344-22.609376 64.789063 0 32.929687 23.035157 67.222656 36.441407 84.390624l-112.742188 112.742188c-5.878906 5.882812-5.878906 15.417969 0 21.296875 2.941407 2.941406 6.796875 4.410156 10.648438 4.410156 3.851562 0 7.707031-1.46875 10.648437-4.410156l112.734375-112.738281c17.15625 13.402344 51.476563 36.476562 84.429688 36.476562 19.261719 0 41.058593-7.609375 64.789062-22.613281 11.804688-7.460937 18.851563-20.25 18.847657-34.210937 0-4.742188-.8125-9.34375-2.34375-13.652344 16.242187-2.402344 34.039062-9.679688 53.082031-21.722656 11.804687-7.460938 18.851562-20.25 18.847656-34.210938 0-4.667969-.785156-9.203125-2.273437-13.453125 16.152343-2.453125 33.84375-9.710937 52.761718-21.671875 11.804688-7.464844 18.851563-20.253906 18.851563-34.214844 0-13.957031-7.046875-26.75-18.851563-34.214844-8.648437-5.46875-17.042968-9.953124-25.152344-13.445312 5.21875-3.308594 10.082032-7.066406 14.359376-11.347656 13.621093-13.621094 23.65625-34.410156 29.828124-61.800782zm-88.890624 2.734376c9.394531-9.390626 25.6875-16.910157 47.125-21.738282.839843-.1875 1.632812-.269531 2.378906-.269531 3.714844 0 6.214844 2.039063 7.226562 3.050781 1.210938 1.210938 3.910156 4.578125 2.777344 9.605469-4.828125 21.433594-12.347656 37.730469-21.738281 47.121094-14.503907 14.503906-42.425781 21.597656-62.359375 24.59375 2.996094-19.941407 10.085937-47.855469 24.589844-62.363281zm-89.027344-15.960938c2.753906-4.355469 7.042968-4.828125 8.757812-4.828125s6.003906.472656 8.757813 4.828125c11.742187 18.574219 17.949219 35.410156 17.949219 48.695312 0 20.511719-14.730469 45.269532-26.707032 61.484376-11.980468-16.21875-26.707031-40.972657-26.707031-61.484376 0-13.285156 6.207031-30.121093 17.949219-48.695312zm-69.335938 69.339844c2.753906-4.359375 7.042969-4.828125 8.757813-4.828125 1.714843 0 6 .46875 8.753906 4.828125 11.746094 18.570312 17.949219 35.40625 17.949219 48.691406 0 20.515625-14.726563 45.269531-26.703125 61.484375-11.980469-16.21875-26.707031-40.972656-26.707031-61.484375 0-13.28125 6.207031-30.121094 17.949218-48.691406zm-69.585937 69.585937c2.753906-4.355469 7.042969-4.828125 8.757812-4.828125 1.714844 0 6 .472656 8.753907 4.828125 11.746093 18.570313 17.949218 35.410157 17.949218 48.691407 0 20.515624-14.726562 45.273437-26.703125 61.484374-11.980469-16.21875-26.707031-40.972656-26.707031-61.484374 0-13.28125 6.207031-30.121094 17.949219-48.691407zm142.789062 142.789063c-18.570312 11.742187-35.410156 17.949218-48.691406 17.949218-20.515625 0-45.269531-14.730468-61.484375-26.707031 16.21875-11.976562 40.972656-26.703125 61.484375-26.703125 13.28125 0 30.121094 6.207032 48.691406 17.949219 4.359375 2.75 4.828125 7.039063 4.828125 8.753906 0 1.71875-.46875 6.003907-4.828125 8.757813zm69.585938-69.585938c-18.570313 11.742188-35.40625 17.949219-48.691407 17.949219-20.515624 0-45.269531-14.730469-61.484374-26.707031 16.21875-11.976563 40.972656-26.703125 61.484374-26.703125 13.285157 0 30.121094 6.207031 48.695313 17.949219 4.355469 2.753906 4.824219 7.039062 4.824219 8.753906s-.46875 6.003906-4.828125 8.757812zm74.167969-78.09375c0 1.714844-.472657 6.003906-4.828126 8.757813-18.574218 11.742187-35.410156 17.949219-48.695312 17.949219-20.511719 0-45.269531-14.730469-61.484375-26.707032 16.21875-11.980468 40.972656-26.707031 61.484375-26.707031 13.285156 0 30.121094 6.207031 48.695312 17.949219 4.355469 2.753906 4.828126 7.042968 4.828126 8.757812zm0 0" fill="#ffb726"/><path d="m496.941406 512c-3.855468 0-7.707031-1.472656-10.648437-4.410156l-481.882813-481.882813c-5.878906-5.878906-5.878906-15.417969 0-21.296875s15.414063-5.878906 21.296875 0l481.882813 481.882813c5.878906 5.878906 5.878906 15.414062 0 21.296875-2.941406 2.9375-6.796875 4.410156-10.648438 4.410156zm0 0" fill="#ff5619"/></svg>